<svg xmlns="http://www.w3.org/2000/svg" viewBox="0 0 100 100" fill="none" stroke="#00ff00" stroke-width="2">
  <path d="M20,80 Q30,60 40,70 Q50,80 60,70 Q70,60 80,80" stroke="#00ff00" stroke-width="3" fill="none"/>
  <path d="M30,75 Q40,55 50,65 Q60,75 70,65 Q80,55 90,75" stroke="#00ff00" stroke-width="2" fill="none"/>
  <path d="M10,85 Q25,65 35,75 Q45,85 55,75 Q65,65 75,75 Q85,85 95,75" stroke="#00ff00" stroke-width="2" fill="none" opacity="0.6"/>
  <path d="M25,70 Q40,50 50,60 Q60,70 70,60 Q80,50 95,70" stroke="#00ff00" stroke-width="1.5" fill="none" opacity="0.4"/>
  <text x="50" y="95" text-anchor="middle" fill="#00ff00" font-family="monospace" font-size="8">MOTION</text>
</svg>
